Coordinates
version=1
nRows=10
nColumns=46
inDegrees=yes

Units are S.I. units (second, meters, Newtons, ...)
Angles are in degrees.

endheader
time	pelvis_tilt	pelvis_list	pelvis_rotation	pelvis_tx	pelvis_ty	pelvis_tz	bb_angle	bb_tx	bb_ty	bb_tz	hip_flexion_r	hip_adduction_r	hip_rotation_r	knee_angle_r	knee_angle_r_beta	ankle_angle_r	subtalar_angle_r	mtp_angle_r	crank_angle_r	hip_flexion_l	hip_adduction_l	hip_rotation_l	knee_angle_l	knee_angle_l_beta	ankle_angle_l	subtalar_angle_l	mtp_angle_l	crank_angle_l	lumbar_extension	lumbar_bending	lumbar_rotation	arm_flex_r	arm_add_r	arm_rot_r	elbow_flex_r	pro_sup_r	wrist_flex_r	wrist_dev_r	arm_flex_l	arm_add_l	arm_rot_l	elbow_flex_l	pro_sup_l	wrist_flex_l	wrist_dev_l
      5.00500000	     -9.12181429	     -2.04717455	     -2.75317424	      0.10547015	      1.16795062	     -0.24238546	      0.00000000	      0.50000000	      0.00000000	      0.25000000	     91.21677177	     -4.26749051	      2.73256287	    110.03923046	      1.92054688	      4.34101745	     -4.37795388	      0.00000000	      0.00000000	     41.66884845	    -14.54693956	    -15.28776670	     47.55466714	      0.82998552	    -14.36797833	      9.01060713	      0.00000000	      0.00000000	    -61.84966510	      5.65032536	      7.64213433	     89.75877224	    -18.80419445	     38.65231312	     53.62065011	     24.90980113	      0.00000000	      0.00000000	     89.58874520	    -12.93624000	     38.46145167	     37.17072438	     22.23531303	      0.00000000	      0.00000000
      5.01000000	     -9.33018483	     -2.02508051	     -3.06549511	      0.10509632	      1.16856125	     -0.24266711	      0.00000000	      0.50000000	      0.00000000	      0.25000000	     91.05328749	     -3.87460108	      2.70686767	    108.65666570	      1.89641657	      5.15753665	     -4.01097851	      0.00000000	      0.00000000	     42.55719238	    -14.86008498	    -14.94861920	     49.32551264	      0.86089260	    -15.56779814	      7.95188728	      0.00000000	      0.00000000	    -61.80677193	      5.67322832	      7.77400982	     89.76145059	    -18.61201991	     38.55722485	     53.82578505	     24.88257864	      0.00000000	      0.00000000	     89.59615685	    -13.15498560	     38.42986512	     37.19236692	     22.26172167	      0.00000000	      0.00000000
      5.01500000	     -9.64400772	     -1.99369130	     -3.31171570	      0.10459474	      1.16885165	     -0.24307810	      0.00000000	      0.50000000	      0.00000000	      0.25000000	     90.84843617	     -3.60631070	      2.67014692	    107.14112099	      1.86996533	      6.14605646	     -3.50632250	      0.00000000	      0.00000000	     43.68779991	    -15.06182766	    -14.40233852	     51.16783252	      0.89304715	    -16.90141410	      6.80460422	      0.00000000	      0.00000000	    -61.63326103	      5.77056893	      7.87633439	     89.76430148	    -18.34538605	     38.35314092	     53.98840430	     24.84135359	      0.00000000	      0.00000000	     89.59909816	    -13.39099818	     38.45766059	     37.23927134	     22.29405053	      0.00000000	      0.00000000
      5.02000000	    -10.00764322	     -1.97740230	     -3.56673877	      0.10414919	      1.16892559	     -0.24349052	      0.00000000	      0.50000000	      0.00000000	      0.25000000	     90.50259035	     -3.35415721	      2.60394738	    105.46592171	      1.84072758	      7.33153509	     -2.89191683	      0.00000000	      0.00000000	     44.96319257	    -15.28199894	    -13.83049959	     53.11374059	      0.92700965	    -18.21557037	      5.74927974	      0.00000000	      0.00000000	    -61.40535001	      5.87806368	      7.97619032	     89.76745443	    -17.98777551	     38.06077042	     54.11173722	     24.78150548	      0.00000000	      0.00000000	     89.59529030	    -13.67224730	     38.56808010	     37.28649410	     22.33327748	      0.00000000	      0.00000000
      5.02500000	    -10.30007122	     -1.95951603	     -3.80548855	      0.10366174	      1.16883935	     -0.24401613	      0.00000000	      0.50000000	      0.00000000	      0.25000000	     89.93506032	     -3.15535073	      2.53862700	    103.68390104	      1.80962545	      8.62109523	     -2.23255794	      0.00000000	      0.00000000	     46.22681826	    -15.44968483	    -13.25401100	     55.08497977	      0.96141427	    -19.94283045	      4.95992895	      0.00000000	      0.00000000	    -61.23226521	      5.96045545	      8.05775748	     89.76878520	    -17.61220927	     37.68502779	     54.14772005	     24.68895679	      0.00000000	      0.00000000	     89.59539710	    -13.96971968	     38.77479690	     37.36718859	     22.38910425	      0.00000000	      0.00000000
      5.03000000	    -10.44191382	     -1.81640707	     -4.03401708	      0.10326686	      1.16891599	     -0.24429984	      0.00000000	      0.50000000	      0.00000000	      0.25000000	     89.09260692	     -3.06949485	      2.55359801	    101.78357925	      1.77645858	     10.08181050	     -1.64140783	      0.00000000	      0.00000000	     47.30858650	    -15.54852299	    -12.82906937	     57.06122367	      0.99590623	    -21.16949795	      4.01229994	      0.00000000	      0.00000000	    -61.16359840	      5.91644842	      8.02869112	     89.77078925	    -17.33537502	     37.42663407	     54.21166181	     24.63884727	      0.00000000	      0.00000000	     89.59894533	    -14.22452506	     38.91425407	     37.40828939	     22.42198478	      0.00000000	      0.00000000
      5.03500000	    -10.73544265	     -1.74537913	     -4.14822762	      0.10272083	      1.16871677	     -0.24484149	      0.00000000	      0.50000000	      0.00000000	      0.25000000	     88.24277021	     -3.09134120	      2.51059861	     99.68496038	      1.73983077	     11.45383625	     -0.64616632	      0.00000000	      0.00000000	     48.64523330	    -15.51548343	    -12.14722604	     59.03012413	      1.03027002	    -22.42932120	      2.59279648	      0.00000000	      0.00000000	    -60.92836079	      6.07982298	      7.72069117	     89.77229982	    -15.97668178	     36.13652273	     53.65923591	     24.00245115	      0.00000000	      0.00000000	     89.60166368	    -15.37702570	     40.52302210	     37.89804988	     22.77995000	      0.00000000	      0.00000000
      5.04000000	    -10.79725120	     -1.61640422	     -4.36015225	      0.10232387	      1.16863618	     -0.24495995	      0.00000000	      0.50000000	      0.00000000	      0.25000000	     87.01254577	     -2.97475973	      2.51098415	     97.46812885	      1.70113976	     12.96417451	     -0.11155595	      0.00000000	      0.00000000	     49.68989540	    -15.59376997	    -11.71569703	     61.04458026	      1.06542892	    -23.45258697	      1.50290640	      0.00000000	      0.00000000	    -60.91078670	      5.97312611	      7.66284741	     89.77451636	    -15.83006284	     36.08468824	     53.75421600	     23.96806960	      0.00000000	      0.00000000	     89.60424231	    -15.55761200	     40.54089364	     37.94931383	     22.80816214	      0.00000000	      0.00000000
      5.04500000	    -10.92250009	     -1.47861147	     -4.46354427	      0.10193325	      1.16832804	     -0.24539052	      0.00000000	      0.50000000	      0.00000000	      0.25000000	     85.76244460	     -3.11885856	      2.39476152	     95.10616026	      1.65991564	     14.27536645	      0.56552366	      0.00000000	      0.00000000	     50.86671037	    -15.54730275	    -11.22515826	     63.09881072	      1.10128200	    -24.53651206	      0.16578043	      0.00000000	      0.00000000	    -60.81399146	      5.98634086	      7.42385905	     89.77482686	    -15.17862790	     35.49722647	     53.64861666	     23.55210488	      0.00000000	      0.00000000	     89.60728481	    -16.23697183	     41.31429928	     38.31929677	     23.05622631	      0.00000000	      0.00000000
      5.05000000	    -10.96788288	     -1.36712701	     -4.63368818	      0.10170634	      1.16802840	     -0.24544851	      0.00000000	      0.50000000	      0.00000000	      0.25000000	     84.29904944	     -3.15071691	      2.21205292	     92.64737788	      1.61700179	     15.55963127	      1.07786659	      0.00000000	      0.00000000	     51.94713867	    -15.66688529	    -10.85715623	     65.21483246	      1.13821355	    -25.33254285	     -0.90950875	      0.00000000	      0.00000000	    -60.77030108	      5.89767421	      7.33837912	     89.77559059	    -14.98964404	     35.49963463	     53.64796782	     23.48746566	      0.00000000	      0.00000000	     89.61480498	    -16.33882380	     41.37543282	     38.25077383	     23.06930912	      0.00000000	      0.00000000
